<svg width="2933" height="2933" viewBox="0 0 2933 2933" fill="none" xmlns="http://www.w3.org/2000/svg">
<path d="M1870.6 623.986C2214.85 968.233 2214.85 1526.37 1870.6 1870.62C1526.36 2214.86 968.222 2214.86 623.975 1870.62C279.728 1526.37 279.728 968.233 623.975 623.986C968.222 279.739 1526.36 279.739 1870.6 623.986ZM788.239 1706.35C1041.77 1959.88 1452.81 1959.88 1706.34 1706.35C1959.87 1452.82 1959.87 1041.78 1706.34 788.25C1452.81 534.723 1041.77 534.723 788.239 788.25C534.712 1041.78 534.712 1452.82 788.239 1706.35Z" fill="#F5F5F5"/>
<path d="M2233.01 2385.05C2275.19 2427.23 2343.57 2427.23 2385.75 2385.05C2427.92 2342.87 2427.92 2274.49 2385.75 2232.32L2233.01 2385.05ZM1639.01 1791.05L2233.01 2385.05L2385.75 2232.32L1791.75 1638.32L1639.01 1791.05Z" fill="#F5F5F5"/>
</svg>
