<svg width="7969" height="6392" viewBox="0 0 7969 6392" fill="none" xmlns="http://www.w3.org/2000/svg">
<path d="M5608 20.9995C3651.79 -220.657 973.924 1715.13 186.375 3071.72C1710.61 4689.6 3006.81 4151.74 4383.63 3580.44C5607.48 3072.6 6334.53 2368.61 7902.58 3298.5C7742.93 1869.02 7338.84 234.815 5608 20.9995Z" fill="#51915E"/>
<path d="M4301.5 6326.72C6403.5 6616.94 7969 5916.88 7969 4611C7969 4269.6 7959.09 3804.49 7902.58 3298.5C6334.53 2368.61 5607.48 3072.6 4383.63 3580.44C3006.81 4151.74 1710.61 4689.6 186.375 3071.72C179.965 3082.76 173.709 3093.77 167.609 3104.74C59.6661 3298.84 0.5 3481.49 0.5 3644.72C0.5 4950.6 2900 6133.22 4301.5 6326.72Z" fill="#4A6650"/>
<g clip-path="url(#clip0_288_199)">
<path d="M3214.66 3944.52H3891.27V4395.65L3440.12 4169.97L3214.66 3944.52Z" fill="#E8EAED"/>
<path d="M4342.86 4169.97L4568.55 4395.65H3666.48L3891.94 4169.97V2270.46H4342.86V4169.97Z" fill="#BDC1C6"/>
<path d="M5687.99 2495.91C5812.51 2495.91 5913.45 2394.97 5913.45 2270.45C5913.45 2145.94 5812.51 2045 5687.99 2045C5563.47 2045 5462.53 2145.94 5462.53 2270.45C5462.53 2394.97 5563.47 2495.91 5687.99 2495.91Z" fill="#E8EAED"/>
<path d="M4568.54 4791.54C4693.06 4791.54 4794.01 4690.6 4794.01 4566.09C4794.01 4441.57 4693.06 4340.63 4568.54 4340.63C4444.03 4340.63 4343.08 4441.57 4343.08 4566.09C4343.08 4690.6 4444.03 4791.54 4568.54 4791.54Z" fill="#E8EAED"/>
<path d="M5913.45 4566.09V2270.45L5687.99 2045H4117.4L4342.86 2270.45V4566.09L4568.54 4791.54H5616.58" fill="#E8EAED"/>
<path opacity="0.2" d="M5687.99 2045H4117.4L4341.96 2269.56V4566.09C4341.96 4595.67 4347.81 4624.96 4359.16 4652.28C4370.52 4679.6 4387.16 4704.4 4408.13 4725.27C4429.1 4746.14 4453.99 4762.65 4481.37 4773.87C4508.74 4785.09 4538.06 4790.79 4567.65 4790.64H5615.68L5912.55 4566.09V2270.45C5912.67 2240.89 5906.95 2211.59 5895.72 2184.25C5884.48 2156.9 5867.96 2132.04 5847.1 2111.09C5826.23 2090.14 5801.44 2073.52 5774.13 2062.18C5746.83 2050.84 5717.55 2045 5687.99 2045Z" fill="url(#paint0_linear_288_199)"/>
<path d="M4342.41 4170.2V4395.65H3665.8L3891.49 4170.2V2270.68H4342.41V4170.2Z" fill="url(#paint1_linear_288_199)"/>
<path d="M3891.49 2270.68C3891.49 2210.89 3915.24 2153.54 3957.53 2111.26C3999.81 2068.98 4057.15 2045.23 4116.95 2045.23C4176.75 2045.23 4234.09 2068.98 4276.37 2111.26C4318.66 2153.54 4342.41 2210.89 4342.41 2270.68" fill="url(#paint2_linear_288_199)"/>
<path d="M3891.26 4169.97C3891.26 4229.79 3867.5 4287.17 3825.2 4329.47C3782.89 4371.77 3725.52 4395.54 3665.69 4395.54C3605.87 4395.54 3548.49 4371.77 3506.19 4329.47C3463.88 4287.17 3440.12 4229.79 3440.12 4169.97" fill="#E8EAED"/>
<path d="M2989.2 4169.97C2989.2 4110.18 3012.95 4052.83 3055.23 4010.55C3097.52 3968.27 3154.86 3944.52 3214.66 3944.52C3274.45 3944.52 3331.8 3968.27 3374.08 4010.55C3416.36 4052.83 3440.12 4110.18 3440.12 4169.97" fill="#BDC1C6"/>
<path d="M4568.54 4791.54C4628.1 4791.54 4685.22 4767.88 4727.33 4725.77C4769.45 4683.66 4793.11 4626.54 4793.11 4566.98H6138.01V4791.54H4568.54Z" fill="#BDC1C6"/>
<path d="M6364.37 4566.09C6364.37 4625.88 6340.62 4683.22 6298.33 4725.51C6256.05 4767.79 6198.71 4791.54 6138.91 4791.54C6079.11 4791.54 6021.77 4767.79 5979.49 4725.51C5937.2 4683.22 5913.45 4625.88 5913.45 4566.09" fill="#BDC1C6"/>
<path d="M6138.91 4566.09H4794.01C4794.01 4625.64 4770.35 4682.76 4728.23 4724.87C4686.12 4766.98 4629 4790.64 4569.44 4790.64H6139.81C6199.37 4790.64 6256.48 4766.98 6298.6 4724.87C6340.71 4682.76 6364.37 4625.64 6364.37 4566.09H6138.91Z" fill="url(#paint3_linear_288_199)"/>
<path d="M4849.25 2412.37H5443.22" stroke="#C0C0C0" stroke-width="2" stroke-linecap="round" stroke-linejoin="round"/>
<path d="M4654.1 3125.79H5638.59" stroke="#C0C0C0" stroke-linecap="round" stroke-linejoin="round"/>
<path d="M4654.1 3363.59H5638.59" stroke="#C0C0C0" stroke-linecap="round" stroke-linejoin="round"/>
<path d="M4654.1 3601.17H5638.59" stroke="#C0C0C0" stroke-linecap="round" stroke-linejoin="round"/>
<path d="M4654.1 3836.5H5638.59" stroke="#C0C0C0" stroke-linecap="round" stroke-linejoin="round"/>
<path d="M4654.1 4074.31H5638.59" stroke="#C0C0C0" stroke-linecap="round" stroke-linejoin="round"/>
<path d="M5146.34 4311.22H5638.59" stroke="#C0C0C0" stroke-width="2" stroke-linecap="round" stroke-linejoin="round"/>
<ellipse cx="4835.33" cy="2757.52" rx="78.5969" ry="78.5944" fill="#8B1840"/>
<ellipse cx="5457.14" cy="2757.52" rx="78.5969" ry="78.5944" fill="#F94181"/>
<ellipse cx="5042.6" cy="2757.52" rx="78.5969" ry="78.5944" fill="#FA2A73"/>
<ellipse cx="5249.87" cy="2757.52" rx="78.5969" ry="78.5944" fill="#AD1D50"/>
<path d="M6086.32 2178.22L5794.21 4427.34L7182.69 4607.67L7474.81 2358.54L6086.32 2178.22Z" fill="#F8F9FA"/>
<rect width="629.544" height="388.207" rx="50" transform="matrix(0.99303 0.117862 -0.117869 0.993029 6232.25 2495.53)" fill="#8B1840"/>
<path d="M6603.29 2698.85C6630.27 2716.91 6625.62 2757.9 6595.28 2769.46L6497.38 2806.78C6469.38 2817.45 6440.02 2794.67 6443.39 2764.89L6454.23 2669.31C6457.6 2639.53 6491.32 2623.9 6516.22 2640.57L6603.29 2698.85Z" fill="#F6407F"/>
<g opacity="0.1">
<path d="M6086.32 2178.22L5794.21 4427.34L7182.69 4607.67L7474.81 2358.54L6086.32 2178.22Z" fill="#F6407F"/>
</g>
<path d="M6914.32 2587.98L7191.66 2623.91" stroke="#EA4335" stroke-width="2" stroke-linecap="round" stroke-linejoin="round"/>
<path d="M6859.76 3007.67L7137.09 3043.6" stroke="#EA4335" stroke-linecap="round" stroke-linejoin="round"/>
<g style="mix-blend-mode:multiply" opacity="0.2">
<path d="M6240.86 3140.61L7109.92 3253.33" stroke="#EA4335" stroke-linecap="round" stroke-linejoin="round"/>
</g>
<path d="M6213.69 3350.34L7082.75 3463.29" stroke="#EA4335" stroke-linecap="round" stroke-linejoin="round"/>
<g style="mix-blend-mode:multiply" opacity="0.2">
<path d="M6186.52 3560.08L7055.35 3673.03" stroke="#EA4335" stroke-linecap="round" stroke-linejoin="round"/>
</g>
<g style="mix-blend-mode:multiply" opacity="0.2">
<path d="M6159.35 3767.79L7028.4 3880.74" stroke="#EA4335" stroke-linecap="round" stroke-linejoin="round"/>
</g>
<g style="mix-blend-mode:multiply" opacity="0.2">
<path d="M6648.22 4044.67L7001.23 4090.48" stroke="#EA4335" stroke-width="2" stroke-linecap="round" stroke-linejoin="round"/>
</g>
<path d="M6086.32 2178.22L5794.21 4427.34L7182.69 4607.67L7474.81 2358.54L6086.32 2178.22Z" fill="url(#paint4_linear_288_199)"/>
<path d="M1487 2155.88L1194.88 4405L2583.36 4585.33L2875.48 2336.21L1487 2155.88Z" fill="#F8F9FA"/>
<rect x="1537" y="2424.99" width="444.541" height="624.669" transform="rotate(-9.97381 1537 2424.99)" fill="url(#paint5_linear_288_199)"/>
<rect x="1863.31" y="2452.26" width="444.541" height="605.825" transform="rotate(16.5707 1863.31 2452.26)" fill="url(#paint6_linear_288_199)"/>
<g opacity="0.1">
<path d="M1487 2155.88L1194.88 4405L2583.36 4585.33L2875.48 2336.21L1487 2155.88Z" fill="#393939"/>
</g>
<path d="M2314.61 2565.52L2592.17 2601.45" stroke="#F9367B" stroke-width="2" stroke-linecap="round" stroke-linejoin="round"/>
<g style="mix-blend-mode:multiply" opacity="0.2">
<path d="M1641.37 3118.15L2510.21 3230.88" stroke="#F9367B" stroke-linecap="round" stroke-linejoin="round"/>
</g>
<g style="mix-blend-mode:multiply" opacity="0.2">
<path d="M1613.98 3327.89L2483.03 3440.84" stroke="#F9367B" stroke-linecap="round" stroke-linejoin="round"/>
</g>
<path d="M1586.8 3537.62L2455.86 3650.57" stroke="#F9367B" stroke-linecap="round" stroke-linejoin="round"/>
<g style="mix-blend-mode:multiply" opacity="0.2">
<path d="M1559.86 3745.34L2428.69 3858.29" stroke="#F9367B" stroke-linecap="round" stroke-linejoin="round"/>
</g>
<g style="mix-blend-mode:multiply" opacity="0.2">
<path d="M2075.9 4025.81L2401.52 4068.02" stroke="#F9367B" stroke-width="2" stroke-linecap="round" stroke-linejoin="round"/>
</g>
<path d="M1487 2155.88L1194.88 4405L2583.36 4585.33L2875.48 2336.21L1487 2155.88Z" fill="url(#paint7_linear_288_199)"/>
<path style="mix-blend-mode:multiply" d="M2618.22 2484.91L2746 3338.89L2861.65 2448.53L2618.22 2484.91Z" fill="url(#paint8_linear_288_199)"/>
<mask id="mask0_288_199" style="mask-type:luminance" maskUnits="userSpaceOnUse" x="2435" y="1863" width="1913" height="3144">
<path d="M4347.35 1863.11H2435.2V5006.89H4347.35V1863.11Z" fill="white"/>
</mask>
<g mask="url(#mask0_288_199)">
<path d="M4116.49 2197.4L2731.72 2404.35L3066.96 4647.44L4451.73 4440.5L4116.49 2197.4Z" fill="#F8F9FA"/>
<path d="M3585.46 2639.07L3603.07 2663.77L3591.47 2732.92L3543.49 2708.96L3553.19 2651.16L3585.46 2639.07Z" fill="#8B1840"/>
<path d="M3627.74 2674.81L3642.76 2705.45L3628.18 2754.47L3610.17 2779.57L3591.08 2776.36L3607.09 2680.9L3627.74 2674.81Z" fill="#8B1840"/>
<path d="M3664.44 2709.08L3676.12 2724.84L3665.39 2788.83L3637.43 2794.22L3629.78 2782.86L3649.8 2720.42L3664.44 2709.08Z" fill="#8B1840"/>
<path d="M3528.11 2775.35L3577.52 2740.14L3496.37 2695.75L3427.58 2751.6L3489.21 2877.59L3552.69 2888.24L3564.46 2818.06L3485.37 2761.29L3528.11 2775.35Z" fill="#8B1840"/>
<path d="M3528.42 2637.46L3543.03 2657.95L3535.32 2703.88L3500.5 2686.9L3482.61 2692.38L3489.88 2649.03L3528.42 2637.46Z" fill="#8B1840"/>
<path d="M3555.54 2788.97L3658.75 2806.28L3619.25 2899.41L3563.01 2889.97L3576.33 2810.5L3555.54 2788.97Z" fill="#8B1840"/>
<path d="M3553.53 2902.18L3610.3 2911.7L3594.02 3008.71L3542.88 3000.14L3557.34 2913.9L3585.44 2918.61L3553.53 2902.18Z" fill="#8B1840"/>
<path d="M3548.37 2901.31L3490.57 2891.62L3474.3 2988.63L3514.4 2995.36L3525.57 2928.76L3506.09 2901.23L3535.77 2906.21L3520.64 2996.41L3532.1 2998.33L3548.37 2901.31Z" fill="#8B1840"/>
<path d="M3246.86 2608.24L3229.67 2633.24L3242.42 2702.19L3289.99 2677.42L3279.33 2619.8L3246.86 2608.24Z" fill="#8B1840"/>
<path d="M3205.18 2644.69L3190.67 2675.57L3206.08 2724.34L3224.5 2749.14L3243.54 2745.61L3225.93 2650.43L3205.18 2644.69Z" fill="#8B1840"/>
<path d="M3169.06 2679.57L3157.65 2695.52L3169.45 2759.32L3197.5 2764.24L3204.95 2752.75L3183.89 2690.66L3169.06 2679.57Z" fill="#8B1840"/>
<path d="M3306.48 2743.55L3256.48 2709.16L3336.89 2663.43L3406.6 2718.11L3347.08 2845.13L3283.8 2856.83L3270.86 2786.86L3348.98 2728.77L3306.48 2743.55Z" fill="#8B1840"/>
<path d="M3303.86 2605.68L3289.6 2626.41L3298.07 2672.2L3332.61 2654.64L3350.59 2659.83L3342.6 2616.61L3303.86 2605.68Z" fill="#8B1840"/>
<path d="M3279.28 2757.63L3176.38 2776.66L3217.42 2869.11L3273.51 2858.74L3258.85 2779.5L3279.28 2757.63Z" fill="#8B1840"/>
<path d="M3283.19 2870.78L3226.59 2881.25L3244.48 2977.98L3295.47 2968.55L3279.57 2882.57L3251.55 2887.75L3283.19 2870.78Z" fill="#8B1840"/>
<path d="M3288.33 2869.83L3345.96 2859.17L3363.85 2955.9L3323.87 2963.3L3311.59 2896.89L3330.6 2869.04L3301.01 2874.51L3317.64 2964.45L3306.22 2966.56L3288.33 2869.83Z" fill="#8B1840"/>
<path d="M2974.44 2752.08L2966.84 2781.45L3002.4 2841.87L3038.63 2802.34L3008.91 2751.83L2974.44 2752.08Z" fill="#8B1840"/>
<path d="M2947.74 2800.58L2944.67 2834.57L2975.83 2875.12L3001.62 2892.12L3018.3 2882.3L2969.2 2798.88L2947.74 2800.58Z" fill="#8B1840"/>
<path d="M2925.73 2845.71L2920.46 2864.6L2953.37 2920.52L2981.41 2915.55L2984.48 2902.21L2943.45 2851.07L2925.73 2845.71Z" fill="#8B1840"/>
<path d="M3076.74 2858.84L3018 2843.62L3077.92 2773.14L3162.13 2800.69L3149.64 2940.4L3094.17 2973.04L3058.08 2911.71L3111.62 2830.41L3076.74 2858.84Z" fill="#8B1840"/>
<path d="M3027.13 2730.18L3020.82 2754.53L3044.44 2794.67L3070.88 2766.35L3089.56 2765.08L3067.27 2727.2L3027.13 2730.18Z" fill="#8B1840"/>
<path d="M3056 2881.36L2965.81 2934.45L3036 3007.28L3085.15 2978.35L3044.28 2908.91L3056 2881.36Z" fill="#8B1840"/>
<path d="M3098.37 2986.36L3048.76 3015.56L3098.66 3100.33L3143.35 3074.03L3099 2998.67L3074.44 3013.12L3098.37 2986.36Z" fill="#8B1840"/>
<path d="M3102.88 2983.71L3153.38 2953.98L3203.28 3038.76L3168.24 3059.38L3133.99 3001.18L3142.33 2968.51L3116.39 2983.77L3162.78 3062.59L3152.77 3068.48L3102.88 2983.71Z" fill="#8B1840"/>
<g opacity="0.1">
<path d="M4116.49 2197.4L2731.72 2404.35L3066.96 4647.44L4451.73 4440.5L4116.49 2197.4Z" fill="#4285F4"/>
</g>
<g style="mix-blend-mode:multiply">
<path d="M3639.75 2571.58L3916.42 2530.04" stroke="#2196F3" stroke-width="2" stroke-linecap="round" stroke-linejoin="round"/>
</g>
<path d="M3702.18 2989.93L3979.07 2948.61" stroke="#2196F3" stroke-linecap="round" stroke-linejoin="round"/>
<path d="M3143.7 3287.47L4010.28 3157.9" stroke="#2196F3" stroke-linecap="round" stroke-linejoin="round"/>
<g style="mix-blend-mode:multiply" opacity="0.2">
<path d="M3174.91 3496.75L4041.72 3367.18" stroke="#2196F3" stroke-linecap="round" stroke-linejoin="round"/>
</g>
<path d="M3206.35 3705.81L4072.94 3576.47" stroke="#2196F3" stroke-linecap="round" stroke-linejoin="round"/>
<g style="mix-blend-mode:multiply" opacity="0.2">
<path d="M3237.11 3913.08L4103.93 3783.51" stroke="#2196F3" stroke-linecap="round" stroke-linejoin="round"/>
</g>
<g style="mix-blend-mode:multiply" opacity="0.2">
<path d="M3778.08 4046.24L4135.14 3992.8" stroke="#2196F3" stroke-width="2" stroke-linecap="round" stroke-linejoin="round"/>
</g>
<path d="M4116.49 2197.4L2731.72 2404.35L3066.96 4647.44L4451.73 4440.5L4116.49 2197.4Z" fill="url(#paint9_linear_288_199)"/>
<path style="mix-blend-mode:multiply" d="M4156.7 4484.57L4452 4440.56L4156.7 2465.37V4484.57Z" fill="url(#paint10_linear_288_199)"/>
</g>
</g>
<defs>
<linearGradient id="paint0_linear_288_199" x1="5015.42" y1="5176.2" x2="5015.42" y2="4245.87" gradientUnits="userSpaceOnUse">
<stop stop-color="#9AA0A6"/>
<stop offset="0.15" stop-color="#9AA0A6" stop-opacity="0.97"/>
<stop offset="0.31" stop-color="#9AA0A6" stop-opacity="0.9"/>
<stop offset="0.46" stop-color="#9AA0A6" stop-opacity="0.77"/>
<stop offset="0.62" stop-color="#9AA0A6" stop-opacity="0.6"/>
<stop offset="0.79" stop-color="#9AA0A6" stop-opacity="0.37"/>
<stop offset="0.95" stop-color="#9AA0A6" stop-opacity="0.1"/>
<stop offset="1" stop-color="#9AA0A6" stop-opacity="0"/>
</linearGradient>
<linearGradient id="paint1_linear_288_199" x1="4549.01" y1="3333.05" x2="3923.83" y2="3333.05" gradientUnits="userSpaceOnUse">
<stop stop-color="#9AA0A6"/>
<stop offset="0.33" stop-color="#9EA4AA"/>
<stop offset="0.68" stop-color="#ABB0B5"/>
<stop offset="1" stop-color="#BDC1C6"/>
</linearGradient>
<linearGradient id="paint2_linear_288_199" x1="4549.01" y1="2157.95" x2="3923.83" y2="2157.95" gradientUnits="userSpaceOnUse">
<stop stop-color="#9AA0A6"/>
<stop offset="0.33" stop-color="#9EA4AA"/>
<stop offset="0.68" stop-color="#ABB0B5"/>
<stop offset="1" stop-color="#BDC1C6"/>
</linearGradient>
<linearGradient id="paint3_linear_288_199" x1="5466.57" y1="4956.81" x2="5466.57" y2="4553.29" gradientUnits="userSpaceOnUse">
<stop stop-color="#9AA0A6"/>
<stop offset="0.33" stop-color="#9EA4AA"/>
<stop offset="0.68" stop-color="#ABB0B5"/>
<stop offset="1" stop-color="#BDC1C6"/>
</linearGradient>
<linearGradient id="paint4_linear_288_199" x1="8114.36" y1="2113.37" x2="6486.99" y2="3520.93" gradientUnits="userSpaceOnUse">
<stop stop-color="white"/>
<stop offset="0.78" stop-color="white" stop-opacity="0"/>
</linearGradient>
<linearGradient id="paint5_linear_288_199" x1="1759.27" y1="2424.99" x2="1759.27" y2="3049.66" gradientUnits="userSpaceOnUse">
<stop offset="0.491618" stop-color="#8B1840"/>
<stop offset="1" stop-color="#41202B"/>
</linearGradient>
<linearGradient id="paint6_linear_288_199" x1="2085.58" y1="2452.26" x2="2100.59" y2="3137.18" gradientUnits="userSpaceOnUse">
<stop offset="0.441135" stop-color="#F9367B"/>
<stop offset="1" stop-color="#FFC7DB"/>
</linearGradient>
<linearGradient id="paint7_linear_288_199" x1="3365.89" y1="2235.6" x2="2368.86" y2="3085.79" gradientUnits="userSpaceOnUse">
<stop stop-color="white"/>
<stop offset="0.78" stop-color="white" stop-opacity="0"/>
</linearGradient>
<linearGradient id="paint8_linear_288_199" x1="3313.02" y1="2303.91" x2="2712.1" y2="2883.06" gradientUnits="userSpaceOnUse">
<stop stop-color="#A9A9A9" stop-opacity="0.4"/>
<stop offset="1" stop-color="#3C3C3C" stop-opacity="0"/>
</linearGradient>
<linearGradient id="paint9_linear_288_199" x1="4668.95" y1="1522.33" x2="3613.56" y2="3384.38" gradientUnits="userSpaceOnUse">
<stop stop-color="white"/>
<stop offset="0.78" stop-color="white" stop-opacity="0"/>
</linearGradient>
<linearGradient id="paint10_linear_288_199" x1="5965.32" y1="2412.6" x2="3951.93" y2="3673.54" gradientUnits="userSpaceOnUse">
<stop stop-color="#4285F4" stop-opacity="0.4"/>
<stop offset="1" stop-color="#4285F4" stop-opacity="0"/>
</linearGradient>
<clipPath id="clip0_288_199">
<rect width="6272" height="3528" fill="white" transform="translate(1199 1414)"/>
</clipPath>
</defs>
</svg>
